HIERARCHY
ROOT Hips
{
	OFFSET -0.001795 -0.223333 0.028219
	CHANNELS 6 Xposition Yposition Zposition Zrotation Yrotation Xrotation 
	JOINT LeftUpLeg
	{
		OFFSET 0.069520 -0.091406 -0.006815
		CHANNELS 3 Zrotation Yrotation Xrotation
		JOINT LeftLeg
		{
			OFFSET 0.034277 -0.375199 -0.004496
			CHANNELS 3 Zrotation Yrotation Xrotation
			JOINT LeftFoot
			{
				OFFSET -0.013596 -0.397961 -0.043693
				CHANNELS 3 Zrotation Yrotation Xrotation
				JOINT LeftToe
				{
					OFFSET 0.026358 -0.055791 0.119288
					CHANNELS 3 Zrotation Yrotation Xrotation
					End Site
					{
						OFFSET 0.000000 0.000000 0.000000
					}
				}
			}
		}
	}
	JOINT RightUpLeg
	{
		OFFSET -0.067670 -0.090522 -0.004320
		CHANNELS 3 Zrotation Yrotation Xrotation
		JOINT RightLeg
		{
			OFFSET -0.038290 -0.382569 -0.008850
			CHANNELS 3 Zrotation Yrotation Xrotation
			JOINT RightFoot
			{
				OFFSET 0.015774 -0.398415 -0.042312
				CHANNELS 3 Zrotation Yrotation Xrotation
				JOINT RightToe
				{
					OFFSET -0.025372 -0.048144 0.123348
					CHANNELS 3 Zrotation Yrotation Xrotation
					End Site
					{
						OFFSET 0.000000 0.000000 0.000000
					}
				}
			}
		}
	}
	JOINT Spine
	{
		OFFSET -0.002533 0.108963 -0.026696
		CHANNELS 3 Zrotation Yrotation Xrotation
		JOINT Spine1
		{
			OFFSET 0.005487 0.135180 0.001092
			CHANNELS 3 Zrotation Yrotation Xrotation
			JOINT Spine2
			{
				OFFSET 0.001457 0.052922 0.025425
				CHANNELS 3 Zrotation Yrotation Xrotation
				JOINT Neck
				{
					OFFSET -0.002778 0.213870 -0.042857
					CHANNELS 3 Zrotation Yrotation Xrotation
					JOINT Head
					{
						OFFSET 0.005152 0.064970 0.051349
						CHANNELS 3 Zrotation Yrotation Xrotation
						End Site
						{
							OFFSET 0.000000 0.000000 0.000000
						}
					}
				}
				JOINT LeftShoulder
				{
					OFFSET 0.078845 0.121749 -0.034090
					CHANNELS 3 Zrotation Yrotation Xrotation
					JOINT LeftArm
					{
						OFFSET 0.090977 0.030469 -0.008868
						CHANNELS 3 Zrotation Yrotation Xrotation
						JOINT LeftForeArm
						{
							OFFSET 0.259612 -0.012772 -0.027456
							CHANNELS 3 Zrotation Yrotation Xrotation
							JOINT LeftHand
							{
								OFFSET 0.249234 0.008986 -0.001171
								CHANNELS 3 Zrotation Yrotation Xrotation
								End Site
								{
									OFFSET 0.000000 0.000000 0.000000
								}
							}
						}
					}
				}
				JOINT RightShoulder
				{
					OFFSET -0.081759 0.118833 -0.038615
					CHANNELS 3 Zrotation Yrotation Xrotation
					JOINT RightArm
					{
						OFFSET -0.096012 0.032551 -0.009143
						CHANNELS 3 Zrotation Yrotation Xrotation
						JOINT RightForeArm
						{
							OFFSET -0.253742 -0.013329 -0.021401
							CHANNELS 3 Zrotation Yrotation Xrotation
							JOINT RightHand
							{
								OFFSET -0.255298 0.007772 -0.005559
								CHANNELS 3 Zrotation Yrotation Xrotation
								End Site
								{
									OFFSET 0.000000 0.000000 0.000000
								}
							}
						}
					}
				}
			}
		}
	}
}
MOTION
Frames: 14
Frame Time: 0.050000
0.321016 0.908392 0.493303 0.765302 27.836512 3.630524 1.850948 -0.439256 -5.002941 -3.408711 -0.155578 8.706259 5.314104 4.475653 -8.060501 0.000000 0.000000 0.000000 -6.907606 -0.648218 -21.804137 -3.175677 -5.592028 59.056847 -4.208939 -12.137511 26.900604 0.000000 0.000000 0.000000 3.238121 -0.952607 9.651767 2.082919 -1.223579 1.072045 -5.560398 8.090234 1.455865 9.277634 -0.147694 -25.039626 0.000000 0.000000 0.000000 -25.490237 -7.798326 -6.593727 -36.938360 7.350292 -3.737946 -9.390481 -47.092016 2.775899 0.000000 0.000000 0.000000 23.354630 0.515333 5.236607 47.471541 8.579658 -2.807152 22.504034 52.971992 17.336154 0.000000 0.000000 0.000000 
0.347899 0.904963 0.520037 0.420373 28.311661 2.087623 1.062748 -0.149386 -1.307739 -2.620148 -0.283525 9.284189 5.934790 3.916320 -10.290020 0.000000 0.000000 0.000000 -5.846583 -1.152633 -29.369477 -4.230408 -4.782415 61.109038 -6.590678 -15.515602 29.286035 0.000000 0.000000 0.000000 3.858840 -1.170239 10.857037 2.607984 -1.324252 0.118735 -6.216907 6.585268 2.478894 10.621344 -1.111081 -24.299768 0.000000 0.000000 0.000000 -26.145905 -9.149476 -5.723110 -36.913928 5.828709 -3.298463 -5.965264 -48.345805 1.429009 0.000000 0.000000 0.000000 23.873329 -0.775979 4.209922 47.730502 6.906284 -3.527212 20.214365 50.828764 15.221187 0.000000 0.000000 0.000000 
0.374899 0.901252 0.554359 -0.024306 27.674550 1.549691 0.566506 0.053955 1.872239 -2.072241 -0.361724 9.634962 6.585728 4.596709 -11.415631 0.000000 0.000000 0.000000 -3.603950 -1.058271 -35.684395 -3.312736 -3.432681 54.269430 -5.534908 -12.958077 11.633393 0.000000 0.000000 0.000000 4.396997 -1.243265 10.969950 2.741064 -1.309792 -0.364749 -6.301094 5.591833 2.581470 10.574678 -1.301677 -23.959209 0.000000 0.000000 0.000000 -26.138667 -7.886507 -5.900881 -37.289919 3.640920 -2.892077 -5.669474 -51.292065 1.451083 0.000000 0.000000 0.000000 24.010061 -2.150567 2.927119 47.812131 4.904798 -4.179753 19.246430 48.068627 13.576236 0.000000 0.000000 0.000000 
0.402497 0.895659 0.596496 -0.698136 28.543697 0.227013 0.207633 0.211144 5.807539 -0.363177 -0.671650 10.525609 6.837971 4.271502 -12.231529 0.000000 0.000000 0.000000 -2.792861 -1.338435 -39.108730 0.232494 -3.367738 41.746809 -2.824451 -6.885392 4.020427 0.000000 0.000000 0.000000 5.234361 -1.328354 10.861495 3.545885 -1.778652 0.119379 -6.575332 4.513506 1.438708 9.708588 -1.685450 -20.262976 0.000000 0.000000 0.000000 -26.548779 -8.038138 -5.672132 -37.406389 3.047388 -2.710284 -7.320675 -55.835931 2.465535 0.000000 0.000000 0.000000 23.316293 -3.405506 1.659663 47.786265 0.704986 -5.383905 19.510456 46.233650 12.836213 0.000000 0.000000 0.000000 
0.430930 0.887271 0.646471 -0.468294 29.346186 -0.190914 -0.816663 0.376656 10.072020 1.480279 -0.960262 10.627927 6.698726 4.146112 -11.726501 0.000000 0.000000 0.000000 -3.260277 -1.655897 -38.967767 2.427302 -1.791001 23.597815 -4.630294 -9.883784 16.704047 0.000000 0.000000 0.000000 5.049359 -1.153630 9.833992 4.126737 -2.058477 0.050280 -6.207507 2.860625 1.595271 8.837905 -1.296878 -20.416013 0.000000 0.000000 0.000000 -26.144339 -7.619187 -5.278394 -38.587348 1.123073 -2.452034 -10.453534 -59.988953 4.492179 0.000000 0.000000 0.000000 22.610049 -4.420128 0.523191 47.581524 -2.069255 -6.175161 20.259886 44.241613 12.297391 0.000000 0.000000 0.000000 
0.459706 0.875242 0.703027 -0.398460 30.785929 -0.735221 -0.507795 0.206279 14.557077 2.113748 -1.093163 10.908300 5.981021 3.510075 -10.249805 0.000000 0.000000 0.000000 -3.787594 -1.890675 -37.414974 0.910527 -0.256017 8.973668 -3.522884 -8.458041 33.733361 0.000000 0.000000 0.000000 5.275178 -0.911329 7.877749 4.738917 -2.469507 0.546980 -6.492212 1.333989 1.509918 8.257792 -1.366779 -18.827906 0.000000 0.000000 0.000000 -26.340245 -7.621548 -5.082644 -38.763344 -0.919854 -1.878406 -12.984252 -64.257352 6.461029 0.000000 0.000000 0.000000 23.401399 -6.027267 -0.656010 47.000799 -5.645938 -7.338682 19.487849 41.852340 11.045072 0.000000 0.000000 0.000000 
0.487742 0.864688 0.763094 -0.546332 32.550505 -1.496824 0.699234 -0.319508 18.029701 1.831465 -1.231199 12.393421 4.298221 4.311415 -4.381655 0.000000 0.000000 0.000000 -4.041621 -2.261472 -37.244345 -1.064873 0.221532 5.712447 -1.961948 -8.067300 44.700713 0.000000 0.000000 0.000000 5.947882 -0.731153 6.016206 6.026828 -3.251978 1.002363 -8.149239 0.618713 1.603992 8.554391 -1.636526 -18.149374 0.000000 0.000000 0.000000 -25.912443 -8.359306 -4.710219 -39.569020 -4.284924 -0.865768 -12.201055 -68.281176 6.124299 0.000000 0.000000 0.000000 24.652995 -8.555174 -2.178475 45.367552 -8.138391 -7.944655 19.108110 40.502849 10.445090 0.000000 0.000000 0.000000 
0.512996 0.857240 0.822947 -0.866178 33.337024 -1.362268 0.809015 -0.589405 20.199278 3.096048 -1.689522 13.949382 2.784115 7.246146 4.822205 0.000000 0.000000 0.000000 -3.433852 -2.332640 -38.274342 -2.741337 0.554028 6.775921 -1.411754 -7.766205 45.927173 0.000000 0.000000 0.000000 7.440139 -0.656362 4.218272 6.384105 -3.536336 1.388884 -8.956411 -0.118010 1.516852 8.518352 -1.597016 -18.192574 0.000000 0.000000 0.000000 -27.189447 -9.855090 -4.208821 -39.475115 -7.579760 0.329938 -9.485253 -71.353428 4.543309 0.000000 0.000000 0.000000 24.467491 -9.855140 -3.091129 44.741772 -10.528159 -8.494424 18.107325 40.110448 9.957913 0.000000 0.000000 0.000000 
0.534438 0.854811 0.881830 -1.151614 34.396326 -0.694959 1.652356 -1.037442 21.544498 3.358418 -1.843733 14.498154 1.767372 10.958665 16.697093 0.000000 0.000000 0.000000 -2.851918 -2.476797 -39.184494 -4.082072 0.819641 10.215301 -3.083295 -8.474381 41.298106 0.000000 0.000000 0.000000 9.327461 -0.697027 2.927142 6.139299 -3.518734 1.844454 -9.069876 -2.110250 0.744507 8.075345 -1.051719 -20.163979 0.000000 0.000000 0.000000 -25.724169 -11.153272 -2.603603 -42.039113 -10.815858 1.178835 2.621362 -73.437485 -4.439247 0.000000 0.000000 0.000000 23.889992 -10.832438 -4.163623 44.169564 -11.715858 -8.532320 17.808804 39.333556 9.494199 0.000000 0.000000 0.000000 
0.552856 0.857353 0.940827 -0.859476 34.019451 1.319747 2.031919 -1.152416 21.920849 3.639678 -1.962389 14.854890 -1.423106 8.809711 20.784036 0.000000 0.000000 0.000000 -1.892506 -2.315020 -40.841342 -4.097706 0.723503 15.850499 -7.968655 -13.578114 34.308291 0.000000 0.000000 0.000000 10.415372 -0.806552 2.425915 6.846096 -3.416611 -0.165384 -9.558016 -2.973397 0.960079 7.284950 -0.370876 -21.898360 0.000000 0.000000 0.000000 -24.609195 -10.872758 -2.280073 -43.038864 -13.833739 2.059175 11.810790 -74.124275 -11.501256 0.000000 0.000000 0.000000 22.845623 -10.712447 -4.251682 43.729869 -11.397046 -8.223921 15.768896 40.326318 8.986344 0.000000 0.000000 0.000000 
0.569302 0.863313 1.001913 -1.224560 33.725023 2.541238 3.296828 -1.532504 22.237539 3.387412 -1.959884 15.222735 -3.552594 7.813242 24.714169 0.000000 0.000000 0.000000 -0.559643 -1.737105 -41.293221 -3.875776 0.420315 20.932980 -14.777624 -22.262826 32.324050 0.000000 0.000000 0.000000 11.691262 -0.782068 0.849292 7.554412 -3.903423 0.371633 -10.647386 -4.599969 0.025055 6.726236 -0.039966 -23.102720 0.000000 0.000000 0.000000 -22.446691 -10.725524 -1.277611 -44.119711 -16.347249 2.669936 27.731118 -74.859532 -23.709919 0.000000 0.000000 0.000000 22.374507 -9.611000 -4.008622 43.659938 -10.499319 -7.764222 13.703306 42.261980 8.524237 0.000000 0.000000 0.000000 
0.584444 0.873252 1.064246 -1.390587 32.093770 3.932739 4.465662 -1.632955 21.524761 2.406767 -2.125137 17.768134 -5.968801 5.152058 25.337764 0.000000 0.000000 0.000000 0.825111 -0.801028 -41.094363 -3.267036 0.018410 24.878005 -14.789031 -23.735079 26.757338 0.000000 0.000000 0.000000 12.831489 -0.777122 -0.345946 6.661400 -3.373741 0.191416 -9.914811 -4.928380 -1.087504 5.728043 0.373886 -23.558887 0.000000 0.000000 0.000000 -21.944374 -10.665218 -0.769993 -42.766299 -15.959641 2.410187 31.864360 -74.736377 -26.433565 0.000000 0.000000 0.000000 21.053023 -10.160123 -4.693463 41.816357 -9.901963 -7.061995 16.841831 44.198137 10.176585 0.000000 0.000000 0.000000 
0.597866 0.884354 1.124027 -2.059488 30.648974 3.459006 5.648038 -1.652813 19.924242 0.848171 -2.589766 23.051810 -7.460762 3.827310 27.035209 0.000000 0.000000 0.000000 2.812489 0.455710 -38.885925 -3.420914 -0.189861 28.308813 -14.588987 -24.685940 22.978715 0.000000 0.000000 0.000000 13.544056 -0.885097 0.164971 6.364664 -2.852609 -1.565092 -9.903876 -4.674394 0.225341 4.819391 0.896483 -24.404305 0.000000 0.000000 0.000000 -21.041177 -9.989787 -0.847959 -42.872537 -16.563103 2.410720 31.958099 -73.518498 -25.851727 0.000000 0.000000 0.000000 19.925290 -9.052590 -3.985396 42.229942 -7.812863 -6.591386 17.012775 46.074082 10.872966 0.000000 0.000000 0.000000 
0.609108 0.896812 1.176215 -2.122582 29.028295 3.050433 6.139157 -1.191516 15.470571 -1.151159 -3.355507 30.686099 -5.627808 5.315740 26.414395 0.000000 0.000000 0.000000 4.439136 1.544105 -34.792647 -3.886842 0.032617 28.130072 -14.360151 -25.363398 20.298199 0.000000 0.000000 0.000000 13.478007 -0.975110 1.099015 5.638082 -2.429845 -1.955442 -9.475743 -4.051461 0.039693 5.645705 0.555481 -25.039204 0.000000 0.000000 0.000000 -20.101921 -9.437951 -0.886811 -41.865446 -17.178234 2.474626 28.630179 -72.458995 -22.745116 0.000000 0.000000 0.000000 19.354275 -8.479615 -3.664663 41.852283 -5.998902 -6.006201 18.637438 49.627103 12.744789 0.000000 0.000000 0.000000 
